# xmcd CD database file generated by Grip 3.2.0
# 
# Track frame offsets:
#       150
#       16272
#       35441
#       52294
#       72010
#       88331
#       100573
#       113809
#       128037
#       144253
# 
# Disc length: 2143 seconds
# 
# Revision: 1
# Processed by: cddbd v1.5.1PL2 Copyright (c) Steve Scherf et al.
# Submitted via: Grip 3.2.0
# 
DISCID=81085d0a
DTITLE=Tammy Rochelle - Kiss of light
DYEAR=1900
DGENRE=Other
TTITLE0=Tapestry heart
TTITLE1=I Dreamt
TTITLE2=Ocean
TTITLE3=Tell me to jump
TTITLE4=Glow in the dark
TTITLE5=Con mucho mazel tov
TTITLE6=Thursday
TTITLE7=Sense of urgency
TTITLE8=Be fine
TTITLE9=Kiss of light
EXTD=
EXTT0=
EXTT1=
EXTT2=
EXTT3=
EXTT4=
EXTT5=
EXTT6=
EXTT7=
EXTT8=
EXTT9=
PLAYORDER=
